<svg width="1000" height="198" viewBox="0 0 1000 198" fill="none" xmlns="http://www.w3.org/2000/svg">
<path d="M728.373 0.764252C709.619 2.42355 689.954 10.72 675.148 23.1646C661.708 34.478 653.205 46.093 646.599 62.1579C634.147 92.6284 637.943 127.172 656.925 155.229C661.86 162.469 675.224 175.819 682.209 180.344C689.726 185.247 696.559 188.867 702.558 191.13L707.721 193.015L707.113 185.322C704.456 151.005 710.606 119.252 723.741 100.02C729.74 91.1954 740.597 81.1642 751.986 73.8483C754.796 72.0382 756.922 70.4543 756.694 70.3035C756.238 69.7755 749.253 72.4153 742.116 75.7339C722.375 84.8599 709.543 98.5868 702.026 118.423C699.748 124.457 695.952 137.58 694.737 143.614C693.674 148.818 693.598 148.818 688.739 139.541C674.312 111.861 678.716 84.9354 700.887 64.496C710.53 55.5961 726.627 49.2607 744.09 47.3751C755.024 46.1684 775.068 46.9226 784.104 48.8836C790.558 50.3166 798.758 53.1826 798.758 54.0123C798.758 54.2385 797.619 56.5012 796.252 59.0656C790.785 69.0213 787.976 78.977 784.711 99.4918C782.357 113.973 781.143 119.102 778.485 126.04C772.942 140.371 756.314 153.343 736.877 158.397C733.992 159.226 727.993 160.056 723.665 160.357L715.769 160.81L716.225 167.749C716.756 175.367 718.35 183.889 720.628 191.582L722.147 196.636L730.423 197.541C752.594 199.954 778.865 192.714 797.239 179.213C817.588 164.204 830.496 144.519 836.418 119.479C838.24 111.861 838.468 88.3294 836.798 80.6363C828.446 41.1151 799.669 11.5496 761.022 2.57439C756.087 1.44305 741.584 -0.140808 737.636 0.0100403C736.421 0.0854645 732.245 0.387146 728.373 0.764252Z" fill="#7810CB"/>
<path d="M861.025 96.7768V190.753H873.933H886.84L886.992 110.202L887.22 29.7265L906.961 29.5003C917.819 29.4249 929.36 29.6511 932.625 30.0282C947.127 31.7629 957.681 41.2661 961.553 56.1997C963.072 62.0072 963.072 66.08 961.629 72.1892C959.579 80.7873 955.251 86.9719 947.962 91.6481C941.053 96.0226 938.091 96.4751 916.68 96.4751H897.47V103.112V109.749L908.328 122.571C914.25 129.661 929.512 147.913 942.192 163.073L965.274 190.753H982.281C991.545 190.753 999.213 190.602 999.213 190.451C999.213 190.3 986.078 174.612 969.981 155.606L940.749 121.063L946.216 119.705C969.829 113.596 985.394 95.8718 988.659 71.435C990.557 56.5768 985.85 38.6264 976.739 26.2571C972.639 20.6759 964.135 13.2845 958.364 10.2676C955.555 8.75919 950.164 6.64737 946.444 5.44061L939.61 3.40422L900.355 3.10252L861.025 2.87627V96.7768Z" fill="#7810CB"/>
<path d="M0 97.2294V190.753H13.2873H26.5747V150.025V109.297H63.7792H100.984V96.8523V84.4076H63.7792H26.5747V56.8785V29.3494H68.7145H110.854V16.5277V3.70592H55.4272H0V97.2294Z" fill="#7810CB"/>
<path d="M356.483 45.1881C351.32 45.8669 343.423 48.4312 339.475 50.6939C334.16 53.7108 324.289 62.4597 324.213 64.1945C324.213 64.5716 323.91 64.7978 323.454 64.7978C322.999 64.7978 322.695 61.5547 322.695 56.5014V48.205H310.167H297.639V119.479V190.753H310.167H322.695V150.1C322.695 104.772 322.923 102.207 327.63 92.2515C330.895 85.5389 338.336 77.4688 344.79 73.6222C352.458 69.0969 358.836 67.4376 368.251 67.513C372.655 67.5885 377.135 67.9656 378.35 68.4181L380.4 69.3232V58.0853V46.8474L376.831 46.0931C371.288 44.8864 361.57 44.5093 356.483 45.1881Z" fill="#7810CB"/>
<path d="M181.008 46.3168C156.939 50.0125 137.426 63.2113 127.024 82.8965C121.101 93.9836 118.444 105.146 118.444 118.42C118.444 155.754 141.45 184.188 177.288 191.127C202.04 195.879 228.767 189.921 242.054 176.722C244.712 174.082 247.065 171.895 247.217 171.895C247.369 171.895 247.521 176.118 247.521 181.322V190.75H260.049H272.577V119.099V47.4481H260.049H247.521V56.9513V66.4545L243.117 61.9292C230.057 48.7303 205.533 42.4703 181.008 46.3168ZM210.013 69.7731C229.678 75.3543 242.965 89.7599 246.382 108.917C247.825 117.214 247.825 121.136 246.382 128.753C244.787 137.125 242.965 141.65 238.258 148.589C228.919 162.618 209.329 171.518 190.803 170.084C170.378 168.576 154.585 156.659 147.144 137.125C144.791 130.94 144.715 130.412 144.639 118.722C144.639 108.088 144.867 106.051 146.385 101.375C149.878 91.0421 155.193 83.4245 162.786 77.7678C172.352 70.7536 181.16 67.9629 194.447 67.8875C201.812 67.8121 204.47 68.1138 210.013 69.7731Z" fill="#7810CB"/>
<path d="M399.381 117.97V190.753H412.213H425.121L425.349 146.782C425.652 98.4361 425.576 99.3412 430.588 89.2346C433.017 84.2568 438.94 77.7705 443.419 75.0553C449.873 71.0579 454.049 69.9266 463.236 69.474C470.222 69.2478 472.879 69.3986 475.916 70.3791C483.281 72.868 490.039 79.2035 493.532 87.0474C497.176 95.2684 497.328 98.1344 497.328 145.801V190.753H510.236H523.143V150.553C523.143 109.749 523.599 100.095 525.725 93.8354C529.825 82.0695 537.721 74.1502 549.111 70.7562C553.439 69.3986 555.792 69.2478 563.233 69.474C570.978 69.7003 572.572 70.002 575.913 71.7367C582.823 75.2815 587.15 80.7873 590.188 89.6871C591.782 94.5142 591.858 95.5701 592.086 142.633L592.313 190.753H605.221H618.053V146.027C618.053 109.825 617.825 100.02 616.914 94.2125C612.814 68.7198 600.058 53.1074 578.646 47.2999C570.75 45.1127 553.97 44.9618 546.377 46.9982C533.545 50.3922 523.675 57.1048 517.145 66.9097L515.095 70.002L511.906 65.175C502.567 51.1464 485.483 44.2076 463.388 45.4144C448.886 46.1686 440.003 49.9397 431.119 58.9903L425.197 64.9487V55.0684V45.1881H412.289H399.381V117.97Z" fill="#7810CB"/>
</svg>
